<svg aria-hidden="true" style="position: absolute; width: 0; height: 0; overflow: hidden;" version="1.1" xmlns="http://www.w3.org/2000/svg" xmlns:xlink="http://www.w3.org/1999/xlink">
<defs>
<symbol id="icon-snextime" viewBox="0 0 66 32">
<path d="M32.911 17.345c2.514 3.132 5.294 6.050 8.301 8.716l-0.004 0.002c0.131 0.147 0.313 0.291 0.501 0.439v0c0.459 0.362 0.956 0.754 0.841 1.301-0.118 0.33-0.538 0.444-0.888 0.408-0.784-0.082-1.422-0.642-1.998-1.178-1.5-1.322-2.812-2.802-4.123-4.28-1.254-1.414-2.506-2.826-3.919-4.096-0.172-0.156-0.814-0.206-1.032-0.13-1.256 0.443-3.255 3.412-5.297 6.444v0c-2.19 3.253-4.429 6.579-5.856 6.942-0.844 0.306-1.41-0.242-0.868-0.976 0.72-1.127 1.591-2.147 2.461-3.165 0.152-0.178 0.304-0.356 0.456-0.535 2.42-2.858 4.642-5.884 6.646-9.048 1.082-1.464 0.748-2.636-0.4-3.946-2.148-2.678-4.224-5.414-6.226-8.202-0.242-0.338-1.198-1.712-0.614-2.070 0.264-0.162 0.914 0.090 1.162 0.198 1.069 0.466 1.679 1.487 2.258 2.455 0.047 0.079 0.095 0.158 0.142 0.237 1.378 2.276 3.086 4.578 5.052 6.346 0.604 0.544 1.298 0.818 1.848 0.22 0.487-0.532 2.392-3.169 4.495-6.082v-0c1.721-2.383 3.576-4.951 4.897-6.702 0.526-0.872 1.538-0.94 1.546 0.31 0.003 0.569-0.238 0.886-0.481 1.206v0c-0.037 0.049-0.074 0.098-0.111 0.148-2.94 4.039-5.88 8.076-8.82 12.113l-0.007 0.009c-0.33 0.454-0.676 0.956-0.656 1.518 0.020 0.528 0.362 0.984 0.694 1.398zM21.005 18.725c-0.359 0.113-0.719 0.227-1.078 0.319h-0.004c-0.122 0.035-0.25 0.543-0.41 1.184v0c-0.239 0.951-0.551 2.194-1.028 2.612-0.652 0.494-1.374-0.214-1.256-0.914 0.009-0.028 0.059-0.192 0.142-0.461l0-0.001 0-0 0-0 0-0.001 0-0 0-0.001c0.647-2.106 3.253-10.591 3.359-10.723 0.132-0.164 0.292-0.218 0.484-0.282 0.902-0.302 1.19 0.672 1.39 1.351l0.020 0.067c0.116 0.328 0.241 0.655 0.366 0.982 0.415 1.088 0.831 2.18 0.946 3.34 0.010 0.086 0.096 0.136 0.176 0.106 0.325-0.122 0.81-0.151 1.143-0.171l0.015-0.001c0.040-0.002 0.082 0.014 0.108 0.046 0.021 0.025 0.045 0.052 0.070 0.079l0 0c0.132 0.147 0.293 0.325 0.226 0.475-0.223 0.439-0.622 0.634-0.941 0.79-0.292 0.143-0.518 0.253-0.485 0.488-0.002 0.327 0.030 0.659 0.063 0.991 0.052 0.529 0.105 1.059 0.015 1.569-0.002 0.014-0.006 0.028-0.012 0.040-0.342 0.72-1.494 0.816-1.712-0.050-0.060-0.314-0.004-0.648 0.053-0.982 0.069-0.407 0.138-0.815-0.005-1.188-0.022-0.058-0.086-0.090-0.146-0.078-0.5 0.1-1 0.258-1.5 0.415zM20.461 16.544l-0 0-0 0.001-0 0.001-0 0.001c-0.056 0.198-0.111 0.397-0.168 0.594l0.002 0.002c-0.028 0.096 0.058 0.186 0.156 0.16l1.828-0.492c0.064-0.018 0.104-0.080 0.094-0.146-0.162-1.002-0.374-2.050-0.704-3.012-0.038-0.11-0.192-0.118-0.24-0.012-0.406 0.9-0.672 1.848-0.93 2.772l-0.037 0.131zM53.007 15.959c0.128 0.278 0.288 0.298 0.524 0.098l-0.002 0.002c0.155-0.058 0.518-0.705 0.982-1.531v-0c1.197-2.132 3.064-5.458 3.754-2.919 0.131 1.081 0.022 2.169-0.086 3.254v0.001l-0 0v0.001c-0.035 0.353-0.070 0.705-0.098 1.057-0.097 0.487-0.076 1.015-0.055 1.543v0c0.032 0.815 0.064 1.63-0.335 2.297-0.602 0.69-1.64 0.070-1.428-0.79 0.1-1.85 0.314-3.694 0.526-5.536l0.010-0.084c-0.152 0.236-0.343 0.589-0.564 0.997l-0 0.001v0c-0.85 1.569-2.144 3.955-3.358 3.69-0.466-0.394-2.174-2.87-2.35-3.23-0.074 1.356 0.027 2.714 0.128 4.068 0.054 0.72 0.107 1.44 0.134 2.158-0.052 0.916-1.296 1.244-1.568 0.116-0.068-0.986-0.093-1.98-0.118-2.972-0.009-0.358-0.018-0.715-0.030-1.072-0.064-0.603-0.010-1.237 0.043-1.87 0.071-0.835 0.141-1.668-0.059-2.42-0.45-0.606 0.176-1.222 0.84-1.19 0.83-0.006 2.67 3.366 3.11 4.33zM16.076 12.271c-0.004-0.582-0.25-1.266-0.922-1.2-0.85 0.038-0.896 0.864-0.68 1.524 0.002 0.006 0.004 0.014 0.006 0.022 0.24 1.638 0.238 3.336 0.212 4.988-0.027 1.051-0.215 0.703-0.483 0.204-0.066-0.122-0.136-0.254-0.211-0.376-0.289-0.494-0.581-0.985-0.874-1.477l-0-0-0-0-0-0-0-0-0-0c-0.292-0.491-0.585-0.982-0.873-1.476-0.492-0.93-1.27-1.698-2.32-1.936-0.193-0.112-0.247 0.042-0.301 0.2l-0.009 0.026c-0.129 0.3-0.082 0.612-0.035 0.924 0.018 0.122 0.037 0.243 0.045 0.364 0.053 0.633-0.27 2.764-0.543 4.568-0.153 1.010-0.29 1.917-0.337 2.402-0.198 0.928 0.954 1.388 1.55 0.786 0.247-0.254 0.26-0.589 0.274-0.919v-0c0.002-0.058 0.005-0.115 0.008-0.173 0.049-0.841 0.274-2.342 0.436-3.42 0.052-0.343 0.097-0.642 0.128-0.864 0.018-0.128 0.186-0.162 0.25-0.050 0.724 1.214 2.128 3.524 2.336 3.854 0.33 0.704 0.974 1.258 1.74 0.752 0.932-0.656 0.8-5.43 0.736-6.654-0.014-0.234-0.034-0.47-0.054-0.706-0.038-0.454-0.076-0.91-0.076-1.36l-0.002-0.002zM64.967 18.969c0.649-0.393 1.067-0.647 1.338-0.006v-0.004c0.346 0.736-0.334 1.228-0.952 1.5-1.382 0.734-3.636 1.72-4.964 0.358-1.062-1.511-0.77-3.43-0.494-5.245 0.090-0.595 0.179-1.178 0.218-1.733 0.017-0.171-0.028-0.306-0.075-0.444-0.033-0.098-0.066-0.197-0.079-0.312-0.044-0.566 0.436-1.062 0.914-1.298 0.224-0.112 2.842-0.392 3.444-0.412 0.57-0.018 1.286-0.016 1.756 0.36 0.168 0.184-0.070 0.934-0.428 1.008-0.24 0.049-0.47 0.049-0.704 0.049-0.121 0-0.244 0-0.37 0.007-0.878 0.078-1.772 0.268-2.602 0.552-0.321 0.47-0.359 1.089-0.397 1.697-0.020 0.333-0.041 0.664-0.108 0.965 0.008-0.071 0.78-0.206 1.191-0.278 0.122-0.021 0.212-0.037 0.241-0.044 0.352-0.073 0.698-0.175 1.043-0.277v0c0.306-0.090 0.611-0.18 0.919-0.249 0.234 0.010 0.46 0.31 0.538 0.51-0.154 0.316-0.364 0.592-0.672 0.774-1.022 0.516-2.126 0.906-3.228 1.218-0.154 0.040-0.16 0.058-0.152 0.198 0.018 0.162 0.010 0.355 0.001 0.556-0.026 0.639-0.056 1.355 0.723 1.38 1.284 0.147 2.217-0.418 2.897-0.83zM6.189 16.791c-0.379-0.208-0.822-0.312-1.266-0.416-0.739-0.174-1.478-0.347-1.913-1-0.54-0.982 0.684-2.39 1.634-2.536 0.399-0.062 0.724 0.064 1.063 0.194 0.134 0.052 0.27 0.104 0.413 0.146 1.012 0.294 1.282-0.854 0.488-1.388-2.958-2.282-7.272 3.026-4.144 5.262 0.624 0.397 1.332 0.627 2.036 0.855v0c0.29 0.094 0.578 0.188 0.86 0.293 0.452 0.144 0.586 0.452 0.216 0.8-0.532 0.582-1.288 0.87-2.060 0.946-0.907 0.111-1.729-0.279-2.533-0.661-0.209-0.099-0.416-0.198-0.623-0.287-0.584-0.174-0.334 0.854-0.114 1.094 2.114 3.484 10.561-0.824 5.946-3.302h-0.004zM43.085 10.723c-1.49 0.266-2.986 0.495-4.481 0.724-0.45 0.069-0.9 0.138-1.35 0.208-0.498 0.134-0.738 0.61-0.598 1.182 0.342 0.878 1.258 0.59 2.085 0.331 0.324-0.102 0.634-0.199 0.891-0.221 0.019 2.063-0.105 4.116-0.23 6.171l-0 0.004c-0.019 0.322-0.039 0.644-0.058 0.967 0.004 0.146-0.008 0.309-0.021 0.477-0.041 0.531-0.085 1.115 0.383 1.419 1.292 0.526 1.352-1.076 1.352-1.946 0-1.281 0.054-2.592 0.107-3.899v-0c0.049-1.192 0.097-2.38 0.105-3.537 0.601-0.214 1.061-0.302 1.603-0.405 0.363-0.069 0.763-0.145 1.268-0.271 0.552-0.13 0.738-0.308 0.716-0.792-0.12-0.786-0.904-0.606-1.496-0.47-0.1 0.023-0.194 0.044-0.278 0.060l0.002-0.002zM45.787 12.045c0.006-0.66 0.312-0.984 0.936-0.988h0.002c0.007 0 0.015 0 0.024 0.001 0.138 0.003 0.509 0.013 0.704 0.283 0.159 0.219 0.112 0.438 0.062 0.673-0.007 0.031-0.014 0.063-0.020 0.095-0.084 0.43-0.22 1.917-0.37 3.573-0.17 1.872-0.36 3.959-0.518 4.977l-0.001 0.007c-0.028 0.176-0.056 0.355-0.129 0.517-0.156 0.352-0.596 0.564-0.97 0.544-0.254-0.014-0.514-0.15-0.646-0.372-0.13-0.217 0.077-0.954 0.137-1.165 0.004-0.013 0.007-0.024 0.009-0.033 0.322-1.156 0.45-2.358 0.57-3.548 0.126-1.246 0.21-4.564 0.21-4.564z"></path>
</symbol>
<symbol id="icon-leaf" viewBox="0 0 39 32">
<path d="M18.025 25.114c0.274-5.37 1.807-10.286 5.26-14.519 3.242-3.931 7.422-6.554 12.091-8.43 0.904-0.367 1.511-0.026 1.731 0.871 1.175 4.915 1.121 9.803-0.764 14.538-1.998 5.025-5.462 8.814-10.262 11.341-1.432 0.768-2.939 1.385-4.487 1.836-0.566 0.17-1.183 0.37-1.65-0.161-0.498-0.566 0.050-1.032 0.301-1.479 1.597-2.828 2.663-5.896 4.211-8.743 0.863-1.567 1.838-3.079 2.766-4.611 0.162-0.288 0.538-0.614 0.174-0.894-0.365-0.264-0.631 0.15-0.839 0.386-2.017 2.349-3.619 4.947-4.871 7.776-0.719 1.64-1.502 3.243-2.253 4.865-0.183 0.401-0.445 0.717-0.948 0.595-0.519-0.123-0.564-0.552-0.544-0.978 0.038-0.786 0.076-1.588 0.114-2.375l-0.032-0.018z"></path>
<path d="M16.24 27.769c-0.020 0.409-0.024 0.836-0.060 1.245-0.034 0.376-0.057 0.851-0.52 0.911-0.413 0.062-0.523-0.386-0.656-0.688-0.222-0.503-0.411-1.021-0.582-1.554-0.746-2.235-1.811-4.322-3.044-6.334-0.091-0.152-0.183-0.288-0.291-0.441-0.17-0.222-0.387-0.478-0.675-0.295-0.305 0.199-0.139 0.502-0.019 0.738 0.645 1.262 1.308 2.508 1.835 3.83 0.556 1.405 1.162 2.797 1.718 4.219 0.161 0.402 0.383 0.921 0.005 1.264-0.395 0.359-0.838 0.009-1.221-0.206-5.802-3.249-9.899-7.829-11.154-14.503-0.551-2.882-0.755-5.814-0.122-8.738 0.191-0.91 0.6-1.219 1.355-0.87 4.845 2.334 8.927 5.517 11.349 10.442 1.706 3.447 2.134 7.177 2.083 10.966l-0.001 0.016z"></path>
<path d="M12.907 6.945c-0.047 0.983-0.633 1.562-1.55 1.518s-1.603-0.799-1.543-1.715c0.038-0.786 0.912-1.565 1.681-1.511 0.867 0.058 1.456 0.776 1.429 1.694l-0.017 0.016z"></path>
<path d="M24.118 5.579c-0.884-0.042-1.54-0.747-1.515-1.616 0.041-0.852 0.78-1.555 1.631-1.497 0.884 0.042 1.633 0.85 1.592 1.701-0.039 0.819-0.808 1.455-1.693 1.412l-0.016-0.001z"></path>
<path d="M17.274 5.218c-0.817-0.072-1.548-0.911-1.478-1.696 0.074-0.85 0.825-1.454 1.725-1.394 0.916 0.060 1.414 0.642 1.352 1.591-0.045 0.933-0.748 1.573-1.599 1.515l0.001-0.016z"></path>
</symbol>
<symbol id="icon-logo" viewBox="0 0 81 32">
<path d="M23.48 0.288c0.261-0.070 0.531-0.128 0.81-0.172v3.248c-0.572 0.362-1.102 0.969-1.592 1.823-0.823 1.454-1.413 3.101-1.77 4.939-0.357 1.811-0.535 3.526-0.535 5.145v2.593c0.027 0.576 0.082 1.413 0.165 2.511 0.082 1.070 0.192 1.921 0.329 2.552 0.165 0.631 0.412 1.358 0.741 2.182s0.713 1.468 1.152 1.935c0.466 0.439 1.056 0.837 1.77 1.194 0.741 0.329 1.564 0.508 2.47 0.535 2.003-0.11 3.499-1.235 4.487-3.375s1.482-4.761 1.482-7.862c0-1.345-0.11-2.744-0.329-4.198-0.192-1.454-0.535-3.018-1.029-4.692-0.466-1.674-1.221-3.032-2.264-4.075-0.494-0.507-1.035-0.894-1.621-1.161v-3.246c0.922 0.164 1.765 0.453 2.527 0.868 1.262 0.659 2.25 1.496 2.964 2.511s1.276 2.264 1.688 3.746c0.439 1.482 0.714 2.895 0.823 4.24 0.137 1.345 0.206 2.826 0.206 4.445 0 1.098-0.027 2.086-0.082 2.964-0.027 0.878-0.11 1.88-0.247 3.005-0.11 1.098-0.288 2.072-0.535 2.922-0.22 0.851-0.535 1.715-0.947 2.593-0.412 0.851-0.906 1.564-1.482 2.14-0.549 0.549-1.248 1.002-2.099 1.358s-1.797 0.535-2.84 0.535c-1.701 0-3.169-0.206-4.404-0.617-1.207-0.412-2.209-0.988-3.005-1.729-0.768-0.741-1.386-1.715-1.852-2.922-0.439-1.207-0.755-2.525-0.947-3.951-0.165-1.427-0.247-3.115-0.247-5.063v-2.099c0-0.494 0.014-1.235 0.041-2.223 0.055-0.988 0.11-1.77 0.165-2.346 0.082-0.576 0.192-1.317 0.329-2.223 0.137-0.933 0.316-1.674 0.535-2.223 0.22-0.576 0.466-1.221 0.741-1.935 0.302-0.713 0.672-1.29 1.111-1.729s0.919-0.851 1.441-1.235c0.521-0.412 1.139-0.713 1.852-0.906zM0.183 30.995l3.746 0.247v-0.617c0-1.015 0.027-3.156 0.082-6.421 0.082-3.293 0.123-5.461 0.123-6.503v-0.7c0.988-0.027 4.377-0.302 10.167-0.823l-0.412-1.893c-0.659-0.055-2.223-0.178-4.692-0.37-2.47-0.22-4.171-0.384-5.104-0.494-0.027-1.262-0.096-2.868-0.206-4.816-0.082-1.948-0.137-3.238-0.165-3.869 0.192-0.027 2.14-0.192 5.845-0.494s6.174-0.563 7.409-0.782l-0.453-1.852c-1.235-0.192-3.869-0.316-7.903-0.37-4.006-0.055-6.476-0.123-7.409-0.206-0.302 2.799-0.48 7.738-0.535 14.818s-0.22 12.129-0.494 15.147zM39.328 17.206v-2.099c0-0.494 0.014-1.235 0.041-2.223 0.055-0.988 0.11-1.77 0.165-2.346 0.082-0.576 0.192-1.317 0.329-2.223 0.137-0.933 0.316-1.674 0.535-2.223 0.219-0.576 0.466-1.221 0.741-1.935 0.302-0.713 0.672-1.29 1.111-1.729s0.919-0.851 1.441-1.235c0.521-0.412 1.139-0.713 1.852-0.906s1.496-0.288 2.346-0.288c1.701 0 3.183 0.343 4.445 1.029 1.262 0.659 2.25 1.496 2.964 2.511s1.276 2.264 1.688 3.746c0.439 1.482 0.714 2.895 0.823 4.24 0.137 1.345 0.206 2.826 0.206 4.445 0 1.098-0.027 2.086-0.082 2.964-0.027 0.878-0.11 1.88-0.247 3.005-0.11 1.098-0.289 2.072-0.535 2.922-0.219 0.851-0.535 1.715-0.947 2.593-0.412 0.851-0.906 1.564-1.482 2.14-0.549 0.549-1.249 1.002-2.099 1.358-0.638 0.268-1.33 0.435-2.076 0.502v-2.976c1.285-0.473 2.293-1.5 3.023-3.082 0.915-1.983 1.406-4.378 1.474-7.185h-12.569c0.031 0.548 0.080 1.269 0.147 2.163 0.082 1.070 0.192 1.921 0.329 2.552 0.165 0.631 0.412 1.358 0.741 2.182s0.714 1.468 1.153 1.935c0.466 0.439 1.056 0.837 1.77 1.194 0.156 0.069 0.315 0.132 0.478 0.188v2.862c-0.614-0.101-1.185-0.239-1.713-0.415-1.207-0.412-2.209-0.988-3.005-1.729-0.768-0.741-1.386-1.715-1.852-2.922-0.439-1.207-0.755-2.525-0.947-3.951-0.165-1.427-0.247-3.115-0.247-5.063zM54.903 14.757c-0.048-0.468-0.109-0.941-0.181-1.421-0.192-1.454-0.535-3.018-1.029-4.692-0.466-1.674-1.221-3.032-2.264-4.075-1.043-1.070-2.291-1.605-3.746-1.605-1.098 0-2.072 0.741-2.922 2.223-0.823 1.454-1.413 3.101-1.77 4.939-0.319 1.621-0.496 3.164-0.529 4.631h12.442zM61.473 1.029l-0.123 29.719c1.29 0.165 2.483 0.247 3.581 0.247 1.757 0 3.526-0.247 5.31-0.741 1.811-0.521 3.485-1.249 5.022-2.182 1.564-0.933 2.84-2.182 3.828-3.746s1.482-3.293 1.482-5.186c0-5.9-1.661-10.373-4.981-13.419-3.321-3.073-8.027-4.638-14.118-4.692zM65.136 28.237h-0.7c-0.165-14.791-0.247-23.009-0.247-24.656 0.329-0.082 0.672-0.123 1.029-0.123 1.674 0 3.485 0.741 5.433 2.223 1.975 1.454 3.65 3.375 5.022 5.763 1.399 2.36 2.099 4.692 2.099 6.997 0 1.701-0.371 3.211-1.111 4.528-0.741 1.29-1.729 2.305-2.964 3.046s-2.579 1.303-4.034 1.688c-1.454 0.357-2.963 0.535-4.527 0.535z"></path>
</symbol>
<symbol id="icon-instagram" viewBox="0 0 32 32">
<path d="M16 0c4.347 0 4.89 0.016 6.595 0.096 1.704 0.080 2.864 0.347 3.885 0.744 1.056 0.406 1.946 0.957 2.835 1.845 0.814 0.8 1.443 1.767 1.845 2.835 0.395 1.019 0.664 2.181 0.744 3.885 0.075 1.706 0.096 2.248 0.096 6.595s-0.016 4.89-0.096 6.595c-0.080 1.704-0.349 2.864-0.744 3.885-0.401 1.068-1.030 2.036-1.845 2.835-0.8 0.813-1.767 1.443-2.835 1.845-1.019 0.395-2.181 0.664-3.885 0.744-1.706 0.075-2.248 0.096-6.595 0.096s-4.89-0.016-6.595-0.096c-1.704-0.080-2.864-0.349-3.885-0.744-1.068-0.401-2.036-1.030-2.835-1.845-0.814-0.8-1.443-1.767-1.845-2.835-0.397-1.019-0.664-2.181-0.744-3.885-0.075-1.706-0.096-2.248-0.096-6.595s0.016-4.89 0.096-6.595c0.080-1.706 0.347-2.864 0.744-3.885 0.4-1.069 1.030-2.036 1.845-2.835 0.799-0.814 1.767-1.444 2.835-1.845 1.021-0.397 2.179-0.664 3.885-0.744 1.706-0.075 2.248-0.096 6.595-0.096zM16 8c-2.122 0-4.157 0.843-5.657 2.343s-2.343 3.535-2.343 5.657c0 2.122 0.843 4.157 2.343 5.657s3.535 2.343 5.657 2.343c2.122 0 4.157-0.843 5.657-2.343s2.343-3.535 2.343-5.657c0-2.122-0.843-4.157-2.343-5.657s-3.535-2.343-5.657-2.343zM26.4 7.6c0-0.53-0.211-1.039-0.586-1.414s-0.884-0.586-1.414-0.586-1.039 0.211-1.414 0.586c-0.375 0.375-0.586 0.884-0.586 1.414s0.211 1.039 0.586 1.414c0.375 0.375 0.884 0.586 1.414 0.586s1.039-0.211 1.414-0.586c0.375-0.375 0.586-0.884 0.586-1.414zM16 11.2c1.273 0 2.494 0.506 3.394 1.406s1.406 2.121 1.406 3.394c0 1.273-0.506 2.494-1.406 3.394s-2.121 1.406-3.394 1.406c-1.273 0-2.494-0.506-3.394-1.406s-1.406-2.121-1.406-3.394c0-1.273 0.506-2.494 1.406-3.394s2.121-1.406 3.394-1.406z"></path>
</symbol>
<symbol id="icon-viber" viewBox="0 0 29 32">
<path d="M26.009 2.761c-0.748-0.679-3.978-2.704-10.717-2.734 0 0-7.98-0.523-11.854 2.979-2.156 2.125-2.882 5.285-2.962 9.141-0.003 0.128-0.006 0.26-0.009 0.396-0.090 3.944-0.249 10.893 6.583 12.787 0 0-0.028 5.469-0.031 5.95 0 0.336 0.053 0.566 0.246 0.613 0.138 0.034 0.346-0.038 0.522-0.213 1.13-1.133 4.747-5.489 4.747-5.489 4.854 0.316 8.715-0.64 9.13-0.776 0.098-0.031 0.239-0.064 0.414-0.105 1.579-0.368 5.951-1.385 6.758-7.89 0.926-7.45-0.34-12.535-2.827-14.66zM15.575 9.029c0.013-0.248 0.225-0.439 0.473-0.426 0.93 0.048 1.703 0.329 2.254 0.898 0.549 0.566 0.818 1.358 0.865 2.308 0.012 0.248-0.179 0.459-0.428 0.471s-0.46-0.179-0.472-0.427c-0.040-0.813-0.264-1.367-0.613-1.727-0.347-0.358-0.876-0.584-1.653-0.625-0.249-0.013-0.439-0.225-0.427-0.473zM15.374 6.19c-0.248-0.018-0.464 0.168-0.482 0.416s0.168 0.463 0.417 0.481c1.715 0.125 3.004 0.699 3.925 1.703 0.924 1.008 1.378 2.265 1.345 3.805-0.005 0.248 0.192 0.454 0.441 0.459s0.455-0.192 0.46-0.44c0.038-1.746-0.484-3.235-1.581-4.432l-0-0c-1.109-1.209-2.632-1.854-4.524-1.992zM14.097 4.302c0.002-0.248 0.205-0.448 0.454-0.447 2.615 0.018 4.825 0.887 6.599 2.614 1.789 1.741 2.674 4.112 2.697 7.056 0.002 0.248-0.198 0.451-0.447 0.453s-0.452-0.198-0.454-0.446c-0.021-2.759-0.843-4.88-2.425-6.419-1.596-1.553-3.578-2.342-5.977-2.359-0.249-0.002-0.449-0.205-0.447-0.453zM17.089 17.489c-0.341 0.419-0.974 0.366-0.974 0.366-4.629-1.18-5.868-5.86-5.868-5.86s-0.056-0.632 0.367-0.973l0.836-0.664c0.415-0.319 0.679-1.093 0.257-1.849-0.324-0.567-0.676-1.118-1.055-1.651-0.368-0.502-1.226-1.53-1.229-1.533-0.414-0.487-1.022-0.6-1.663-0.267-0.002 0-0.005 0.001-0.007 0.002s-0.005 0.002-0.006 0.002c-0.638 0.367-1.213 0.833-1.704 1.381-0.002 0.003-0.003 0.005-0.005 0.007s-0.003 0.003-0.005 0.006c-0.396 0.477-0.623 0.945-0.68 1.404-0.012 0.068-0.016 0.136-0.012 0.205-0.002 0.202 0.029 0.404 0.091 0.596l0.022 0.015c0.2 0.709 0.7 1.889 1.787 3.856 0.622 1.138 1.339 2.222 2.144 3.239 0.403 0.51 0.835 0.996 1.294 1.457 0.006 0.006 0.011 0.011 0.017 0.017 0.011 0.011 0.022 0.022 0.033 0.033l0.148 0.147c0.461 0.458 0.949 0.89 1.46 1.292 1.019 0.803 2.105 1.519 3.245 2.14 1.971 1.085 3.154 1.585 3.863 1.784l0.015 0.022c0.193 0.063 0.395 0.094 0.598 0.092 0.069 0.003 0.137-0.001 0.205-0.013 0.46-0.055 0.928-0.28 1.405-0.678 0.003-0.002 0.004-0.003 0.006-0.005s0.003-0.003 0.007-0.005c0.549-0.49 1.016-1.064 1.384-1.701 0-0.002 0.001-0.004 0.001-0.006s0.001-0.005 0.001-0.007c0.334-0.64 0.221-1.247-0.27-1.661-0.001 0-0.041-0.033-0.108-0.089-0.278-0.229-1.023-0.842-1.428-1.139-0.533-0.378-1.084-0.73-1.652-1.053-0.758-0.421-1.532-0.157-1.852 0.257l-0.665 0.835z"></path>
</symbol>
<symbol id="icon-viber2" viewBox="0 0 32 32">
<path d="M15.197 0.003c-2.567 0.035-8.089 0.456-11.179 3.287-2.293 2.28-3.095 5.641-3.188 9.804-0.080 4.147-0.173 11.933 7.333 14.055v3.227c0 0-0.051 1.293 0.803 1.56 1.053 0.333 1.653-0.665 2.653-1.732l1.867-2.107c5.133 0.427 9.067-0.559 9.52-0.705 1.040-0.333 6.908-1.081 7.868-8.869 0.987-8.041-0.48-13.108-3.12-15.401l-0.013-0.003c-0.8-0.733-4-3.067-11.16-3.093 0 0-0.528-0.033-1.384-0.021zM15.287 2.265c0.727-0.004 1.173 0.027 1.173 0.027 6.053 0.013 8.948 1.84 9.628 2.453 2.227 1.905 3.371 6.475 2.533 13.189-0.8 6.507-5.56 6.92-6.44 7.2-0.373 0.12-3.84 0.973-8.203 0.693 0 0-3.252 3.921-4.265 4.935-0.16 0.173-0.347 0.227-0.467 0.2-0.173-0.040-0.227-0.253-0.213-0.547l0.027-5.359c-6.361-1.76-5.988-8.403-5.921-11.869 0.080-3.467 0.733-6.309 2.667-8.229 2.609-2.36 7.3-2.68 9.481-2.693zM15.767 5.732c-0 0-0.001 0-0.001 0-0.22 0-0.399 0.178-0.399 0.399 0 0 0 0 0 0v0c0 0.221 0.179 0.4 0.4 0.4v0c0.043-0.001 0.093-0.001 0.143-0.001 2.034 0 3.88 0.809 5.232 2.123l-0.002-0.002c1.453 1.413 2.161 3.307 2.188 5.787 0 0.221 0.179 0.4 0.4 0.4v0-0.012c0.221 0 0.4-0.179 0.4-0.4v0c0.005-0.109 0.008-0.236 0.008-0.364 0-2.326-0.923-4.436-2.423-5.985l0.002 0.002c-1.587-1.547-3.589-2.347-5.948-2.347zM10.495 6.652c-0.054-0.008-0.116-0.013-0.18-0.013-0.236 0-0.457 0.064-0.646 0.176l0.006-0.003h-0.016c-0.547 0.32-1.051 0.72-1.531 1.253-0.36 0.427-0.561 0.852-0.615 1.265-0.009 0.064-0.014 0.137-0.014 0.212 0 0.182 0.029 0.357 0.084 0.521l-0.003-0.012 0.027 0.013c0.458 1.331 0.998 2.476 1.646 3.549l-0.046-0.082c0.895 1.608 1.922 2.996 3.101 4.237l-0.008-0.009 0.040 0.053 0.053 0.040 0.080 0.080c1.236 1.174 2.628 2.205 4.136 3.053l0.104 0.054c1.76 0.96 2.829 1.413 3.469 1.6v0.013c0.187 0.053 0.357 0.080 0.531 0.080 0.57-0.043 1.079-0.274 1.471-0.631l-0.002 0.002c0.52-0.467 0.933-0.984 1.24-1.531v-0.013c0.307-0.573 0.2-1.121-0.24-1.495-0.845-0.742-1.782-1.421-2.781-2.007l-0.085-0.046c-0.68-0.373-1.373-0.147-1.653 0.227l-0.6 0.759c-0.307 0.373-0.867 0.32-0.867 0.32l-0.016 0.013c-4.16-1.067-5.267-5.279-5.267-5.279s-0.053-0.573 0.333-0.867l0.747-0.6c0.36-0.293 0.613-0.987 0.227-1.667-0.631-1.084-1.31-2.022-2.071-2.887l0.017 0.020c-0.166-0.204-0.399-0.349-0.665-0.399l-0.007-0.001zM16.459 7.839c-0.22 0.001-0.399 0.18-0.399 0.4s0.179 0.4 0.4 0.4c0 0 0.001 0 0.001 0h-0c1.388 0.025 2.636 0.607 3.532 1.532l0.001 0.001c0.75 0.825 1.209 1.926 1.209 3.134 0 0.103-0.003 0.205-0.010 0.306l0.001-0.014c0.001 0.22 0.18 0.399 0.4 0.399 0 0 0 0 0 0v0l0.013 0.016c0 0 0 0 0 0 0.221 0 0.4-0.179 0.4-0.4 0-0 0-0.001 0-0.001v0c0.040-1.587-0.453-2.92-1.427-3.987s-2.333-1.667-4.067-1.787c-0.008-0.001-0.018-0.001-0.028-0.001s-0.020 0-0.029 0.001l0.001-0zM17.112 9.997c-0.004-0-0.008-0-0.012-0-0.225 0-0.407 0.182-0.407 0.408 0 0.221 0.176 0.401 0.395 0.407h0.001c1.32 0.067 1.96 0.733 2.040 2.107 0.007 0.215 0.184 0.387 0.4 0.387 0 0 0 0 0 0h0.013c0.215-0.007 0.388-0.183 0.388-0.4 0-0.009-0-0.019-0.001-0.028l0 0.001c-0.093-1.787-1.067-2.788-2.8-2.881-0.002-0-0.005-0-0.008-0s-0.006 0-0.008 0h0z"></path>
</symbol>
<symbol id="icon-telegram" viewBox="0 0 32 32">
<path d="M15.758 31.515c-8.703 0-15.758-7.055-15.758-15.758s7.055-15.758 15.758-15.758c8.703 0 15.758 7.055 15.758 15.758s-7.055 15.758-15.758 15.758zM10.857 17.601l0.020-0.011 1.371 4.522c0.177 0.49 0.419 0.578 0.714 0.537 0.296-0.039 0.452-0.198 0.646-0.384l1.872-1.809 4.018 2.975c0.734 0.405 1.262 0.195 1.445-0.681l2.611-12.326c0.288-1.147-0.216-1.607-1.106-1.242l-15.337 5.925c-1.046 0.419-1.040 1.005-0.189 1.265l3.935 1.228z"></path>
</symbol>
<symbol id="icon-viber3" viewBox="0 0 32 32">
<path d="M16 0c8.837 0 16 7.163 16 16s-7.163 16-16 16c-8.837 0-16-7.163-16-16s7.163-16 16-16z"></path>
<path fill="#fff" style="fill: var(--color2, #000)" d="M23.836 8.123c-0.529-0.487-2.672-2.044-7.448-2.066 0 0-5.63-0.341-8.374 2.177-1.528 1.528-2.066 3.76-2.121 6.535-0.056 2.77-0.128 7.965 4.879 9.373h0.004l-0.004 2.147c0 0-0.030 0.871 0.542 1.046 0.691 0.213 1.101-0.448 1.763-1.161 0.363-0.393 0.862-0.965 1.242-1.404 3.423 0.286 6.057-0.371 6.355-0.47 0.691-0.226 4.605-0.726 5.241-5.92 0.657-5.344-0.32-8.729-2.079-10.257zM24.416 18.004c-0.538 4.336-3.709 4.61-4.294 4.797-0.248 0.081-2.561 0.657-5.472 0.465 0 0-2.168 2.616-2.843 3.295-0.107 0.107-0.231 0.149-0.312 0.128-0.115-0.030-0.149-0.166-0.145-0.367 0-0.29 0.017-3.572 0.017-3.572-0.004 0-0.004 0 0 0-4.238-1.174-3.991-5.596-3.944-7.909s0.482-4.213 1.776-5.489c2.318-2.1 7.102-1.788 7.102-1.788 4.038 0.017 5.971 1.234 6.419 1.639 1.49 1.28 2.249 4.332 1.694 8.801z"></path>
<path fill="#fff" style="fill: var(--color2, #000)" d="M18.355 14.922c-0.141 0-0.26-0.111-0.269-0.256-0.047-0.918-0.478-1.366-1.357-1.413-0.149-0.009-0.265-0.137-0.256-0.286s0.137-0.265 0.286-0.256c1.161 0.064 1.81 0.73 1.869 1.925 0.009 0.149-0.107 0.277-0.256 0.282-0.009 0.004-0.013 0.004-0.017 0.004z"></path>
<path fill="#fff" style="fill: var(--color2, #000)" d="M19.738 15.383h-0.004c-0.149-0.004-0.269-0.128-0.265-0.277 0.021-0.922-0.243-1.669-0.807-2.284-0.559-0.615-1.332-0.948-2.352-1.020-0.149-0.013-0.26-0.141-0.248-0.29s0.141-0.26 0.29-0.248c1.152 0.085 2.062 0.487 2.71 1.195 0.653 0.713 0.969 1.605 0.948 2.659-0.004 0.149-0.128 0.265-0.273 0.265z"></path>
<path fill="#fff" style="fill: var(--color2, #000)" d="M21.155 15.938c-0.149 0-0.269-0.12-0.269-0.269-0.013-1.652-0.487-2.911-1.451-3.854-0.952-0.93-2.16-1.404-3.581-1.417-0.149 0-0.269-0.124-0.269-0.273s0.124-0.269 0.269-0.269c1.566 0.013 2.898 0.538 3.952 1.571 1.059 1.033 1.601 2.458 1.618 4.234 0.004 0.154-0.115 0.277-0.269 0.277 0.004 0 0.004 0 0 0zM16.793 18.264c0 0 0.38 0.034 0.585-0.218l0.397-0.499c0.192-0.248 0.657-0.406 1.11-0.154 0.252 0.141 0.709 0.423 0.99 0.632 0.303 0.222 0.918 0.734 0.922 0.738 0.294 0.248 0.363 0.61 0.162 0.999 0 0 0 0.004 0 0.009-0.205 0.363-0.482 0.704-0.828 1.020-0.004 0-0.004 0.004-0.009 0.004-0.286 0.239-0.568 0.376-0.841 0.406-0.034 0.009-0.073 0.009-0.124 0.009-0.12 0-0.239-0.017-0.359-0.056l-0.009-0.013c-0.427-0.119-1.135-0.418-2.313-1.071-0.768-0.423-1.404-0.854-1.946-1.285-0.286-0.226-0.576-0.478-0.875-0.777-0.009-0.009-0.021-0.021-0.030-0.030s-0.021-0.021-0.030-0.030c-0.009-0.009-0.021-0.021-0.030-0.030s-0.021-0.021-0.030-0.030c-0.295-0.299-0.551-0.589-0.777-0.875-0.431-0.538-0.862-1.178-1.285-1.946-0.653-1.182-0.952-1.891-1.071-2.313l-0.013-0.009c-0.038-0.119-0.056-0.239-0.056-0.359 0-0.051 0-0.090 0.009-0.124 0.034-0.277 0.171-0.555 0.406-0.841 0-0.004 0.004-0.004 0.004-0.009 0.316-0.35 0.657-0.623 1.020-0.828 0 0 0.004 0 0.009 0 0.384-0.201 0.747-0.132 0.999 0.162 0 0 0.516 0.619 0.738 0.922 0.209 0.286 0.491 0.738 0.632 0.99 0.252 0.452 0.094 0.918-0.154 1.11l-0.499 0.397c-0.252 0.205-0.218 0.585-0.218 0.585s0.738 2.809 3.513 3.513z"></path>
</symbol>
<symbol id="icon-arrow-right" viewBox="0 0 32 32">
<path d="M19.662 24.516c-0.423 0.347-0.963 0.566-1.558 0.555-1.275-0.025-2.291-1.069-2.266-2.333 0.013-0.672 0.324-1.269 0.801-1.677l3.283-2.813-15.255-0.279c-1.275-0.025-2.291-1.069-2.266-2.33 0.025-1.264 1.080-2.268 2.356-2.243l15.255 0.279-3.174-2.933c-0.457-0.434-0.744-1.042-0.731-1.714 0.025-1.261 1.080-2.264 2.355-2.239 0.595 0.012 1.126 0.248 1.528 0.622l7.577 7.001c0.457 0.43 0.748 1.039 0.735 1.714-0.013 0.672-0.328 1.269-0.805 1.677l-7.835 6.713z"></path>
</symbol>
<symbol id="icon-arrow-left" viewBox="0 0 31 32">
<path d="M11.886 23.886c0.408 0.326 0.926 0.528 1.494 0.509 1.217-0.041 2.172-1.051 2.132-2.257-0.022-0.641-0.327-1.207-0.787-1.59l-3.171-2.641 14.556-0.47c1.217-0.041 2.172-1.051 2.132-2.254-0.041-1.206-1.062-2.15-2.278-2.109l-14.556 0.47 2.99-2.842c0.43-0.42 0.696-1.005 0.675-1.646-0.040-1.203-1.061-2.147-2.278-2.106-0.568 0.019-1.072 0.252-1.45 0.614l-7.138 6.783c-0.43 0.417-0.7 1.001-0.678 1.646 0.022 0.641 0.33 1.206 0.79 1.59l7.568 6.302z"></path>
</symbol>
<symbol id="icon-pasta-logo" viewBox="0 0 50 32">
<path d="M5.827 13.766c0.258-0.496 0.040-0.634 0.040-0.852 0-0.357-0.099-0.476-0.238-0.714-0.159-0.159-0.159-0.357-0.159-0.496 0.059-0.595 0.099-1.903 0.159-2.498 0.040-0.595 0.139-1.189 0.198-1.824 0.040-0.456 0.139-0.892 0.297-1.348 0.040-0.139 0-0.297 0.040-0.496 0-0.139 0.059-0.297 0.059-0.496 0-0.337 0.040-0.733-0.059-1.13-0.099-0.496 0.079-1.189-0.198-1.645-0.178-0.297-0.357-0.575-0.595-0.833-0.555-0.575-1.070-0.892-1.844-1.070-0.297-0.059-1.031-0.099-1.328-0.020-0.198 0.059-0.396 0.079-0.634 0.159-0.198 0.059-0.654 0.178-0.753 0.377-0.099 0.297-0.555 0.436-0.595 0.793-0.020 0.178 0.456 0.297 0.496 0.396-0.040 0.198-0.178 0.396-0.198 0.595-0.059 0.496-0.139 0.932-0.139 1.546 0 0.436-0.059 0.892-0.059 1.288 0 0.535-0.040 1.090-0.040 1.625 0 0.951-0.258 2.28-0.099 3.271 0.099 0.654 0.198 1.289 0.396 1.883 0.099 0.297 0.278 0.674 0.595 0.694 0.198 0.020 0.396-0.079 0.496-0.238 0.099-0.178 0-0.396 0-0.595 0-0.555-0.159-1.15 0-1.685v-0.198c-0.059-0.654 0.099-1.764 0.099-2.418v-2.795c0-0.436-0.059-0.892-0.059-1.328 0-0.198-0.040-0.396 0.059-0.595 0.040-0.258 0.099-0.555 0.139-0.793 0-0.198-0.040-0.258-0.297-0.198-0.040 0-0.139 0-0.099-0.159 0.059 0 0.099 0 0.159-0.040 0.297-0.258 0.694-0.297 1.031-0.357 0.357-0.079 1.090-0.059 1.427 0.099 0.396 0.198 0.416 0.258 0.575 0.515 0.198 0.297-0.099 0.654-0.099 1.011 0 0.099-0.059 0.515-0.020 0.654v0.357c-0.040 0.436-0.099 0.833-0.198 1.229-0.377 1.645-0.496 3.231-0.634 4.916-0.059 0.793-0.099 1.586 0 2.418 0.040 0.357 0.198 0.694 0.238 1.090 0 0.198 0.159 0.297 0.297 0.396 0.159 0.059 0.297 0.099 0.456 0.198 0.396 0.198 0.297 0.059 0.634-0.099 0.198-0.139 0.337-0.377 0.456-0.595zM14.688 3.022c-0.139-0.436-0.238-0.496-0.515-0.932-0.178-0.159-0.218-0.258-0.396-0.396-0.079-0.040-0.198-0.159-0.238-0.218-0.238-0.278-0.932-0.654-1.308-0.753-0.555-0.139-0.892-0.198-1.388-0.099-0.198 0.040-0.436 0.079-0.575 0.178-0.099 0.059-0.159 0.317-0.218 0.416-0.555 0.159-1.289 0.456-1.566 1.586l-0.178 0.793c-0.159 0.436-0.159 1.487-0.238 2.002-0.079 0.773-0.099 1.288-0.040 2.062 0.040 0.238 0.059 0.436 0.079 0.634-0.079-0.020-0.139-0.059-0.178-0.099-0.119-0.079-0.515-0.238-0.575 0.139-0.020 0.159 0.099 0.297 0.119 0.436 0 0 0.297 0.099 0.357 0.159 0.040 0.059 0.139 0.119 0.297 0.198 0 0.040 0.020 0.059 0.020 0.099 0.139 1.665 0.694 3.509 1.070 4.064 0.040 0.079 0.059 0.278 0.119 0.396 0.258 0.198-0.218 0.476-0.020 0.634 0.139 0.099 0.258 0.317 0.297 0.258 0.377-0.020 0.833 0.099 0.971-0.159 0.139-0.218 0.119-0.892 0.040-1.249-0.099-0.476-0.337-0.813-0.337-0.971-0.020-0.694-0.099-1.090-0.159-1.725-0.059-0.337-0.059-0.654-0.079-0.971 0.535-0.020 1.070-0.278 1.507-0.337 0.377-0.059 1.090-0.357 1.388-0.555 1.17-0.753 1.070-0.932 1.566-1.923 0.178-0.377 0.337-0.971 0.337-1.407 0-0.714 0.059-1.586-0.159-2.26zM9.95 6.134c0.040-0.634 0.535-4.024 0.416-4.52 0.317-0.079 0.238-0.040 0.714-0.178 0.515-0.139 1.249 0.476 1.546 0.733 0.198 0.218 0.377 1.11 0.377 1.328 0.059 0.813-0.198 1.586-0.297 2.319-0.159 0.714-0.396 2.022-1.17 2.399-0.337 0.159-0.932 0.436-1.566 0.436-0.159-0.813-0.059-1.804-0.020-2.518zM13.835 4.389c0.020 0.337-0.159 0.575-0.218 0.912-0.020 0.059-0.099 0.297-0.119 0.059 0-0.079 0.079-0.258 0.079-0.337 0-0.020 0.020-0.059-0.020-0.099 0.059-0.278 0.278-0.575 0.278-0.892 0.099 0.099 0 0.238 0 0.357zM16.877 3.755c-0.515 0.852-0.396 0.793-0.773 1.685-0.178 0.416-0.258 0.932-0.357 1.705-0.040 0.377-0.059 0.793-0.059 1.189 0 0.436 0.040 0.872 0.119 1.249 0.040 0.278 0.159 0.535 0.218 0.833 0.059 0.357 0.416 0.793 0.555 1.090 0.218 0.396 0.496 0.793 0.813 0.991 0.099 0.059 0.198 0.159 0.297 0.238 0.614 0.595 1.388 0.892 2.28 1.031 0.674 0.099 1.328-0.258 1.923-0.575 0.139-0.059 0.238-0.159 0.357-0.258 0.099-0.099 0.198-0.337 0.396-0.337 0.040 0 0.079-0.059 0.139-0.099 0.119-0.099 0.198-0.317 0.337-0.456 0.040-0.040 0.515-0.892 0.555-1.031 0.258-0.654 0.278-0.535 0.436-1.229 0.159-0.634 0.238-1.348 0.317-1.982 0.020-0.079 0.020-0.198 0.020-0.317 0.020-0.575-0.079-1.051-0.159-1.447-0.258-1.17-0.515-1.17-0.951-2.062-0.238-0.476-0.733-0.872-1.229-1.15-0.476-0.258-1.011-0.932-1.645-1.070-0.337-0.079-0.733-0.119-1.15-0.119-0.337 0-0.694 0.059-1.031 0.159-0.238 0.079-0.496 0.198-0.694 0.317-0.278 0.159-0.714 0.575-0.714 0.951 0 0.178-0.040 0.575 0 0.694zM18.424 5.063c-0.020-0.099 0.079-0.337 0.079-0.416 0.059-0.159 0.040-0.515 0.119-0.674 0-0.059 0.040-0.099 0.040-0.198 0.040-0.099-0.040-0.337-0.099-0.456 0.139-0.139 0.278-0.159 0.416-0.337 0.059-0.079 0.753-0.337 1.070-0.337 0.773 0 1.507 0.555 1.923 1.328 0.059 0.099 0.139 0.258 0.218 0.396 0.238 0.496 0.278 0.971 0.238 1.526-0.040 0.634-0.059 1.051-0.079 1.645-0.020 0.912-0.099 1.665-0.278 2.458-0.099 0.377-0.337 0.813-0.535 1.13-0.139 0.218-0.337 0.614-0.535 0.833l-0.198 0.178c-0.555 0.198-0.852 0.496-1.407 0.515-0.892 0.020-1.051-0.317-1.546-1.011-0.079-0.139-0.337-0.872-0.396-1.090-0.099-0.416-0.020-0.714-0.040-1.13-0.020-0.396-0.040-0.852 0.059-1.15l0.951-3.211zM30.332 1.099c-0.476-0.178-1.526 0.476-1.883 0.872-0.416 0.436-0.674 0.496-1.090 0.971-0.159 0.139-0.297 0.337-0.337 0.476-0.198 0.416-0.654 1.15-0.733 1.566-0.099 0.535-0.317 1.051-0.456 1.586-0.099 0.377-0.178 1.328-0.159 1.705 0.099 1.348 0.297 2.141 0.912 3.231 0.436 0.773 0.912 1.328 1.725 1.685 0.159 0.079 0.615 0.357 0.852 0.515 0.337 0.178 0.733 0.119 1.070 0.238 0.377 0.119 0.773 0.020 1.11-0.099 0.377-0.119 0.773-0.178 1.090-0.297 0.436-0.178 0.614-0.258 0.952-0.416 0.119-0.040 0.396-0.258 0.476-0.337 0.040-0.139 0.139-0.099 0.178-0.297 0.099-0.218-0.079-0.178-0.159-0.258s-0.416 0.020-0.416 0.020c-0.753 0.357-0.793 0.416-1.269 0.575-0.694 0.238-2.121-0.040-2.696-0.515-0.337-0.278-0.416-0.614-0.614-1.051-0.040-0.139-0.139-0.278-0.178-0.416-0.575-0.912-0.535-2.399-0.476-3.449 0.040-0.714 0.139-1.368 0.436-2.042 0.079-0.238 0.178-0.416 0.317-0.654 0.059-0.099 0.099-0.198 0.099-0.337 0.059-0.535 1.011-1.764 1.487-2.062 0.079-0.099 0.238-0.099 0.317-0.198 0.099-0.040 0.634-0.297 0.714-0.396 1.031-0.020 0.912 0.694 0.813 0.971-0.258 0.733-0.377 0.872-0.377 1.388 0 0.476 0.258 0.733 0.436 0.912 0.099 0.099 0.198 0.198 0.297 0.198 0.139 0 0.218-0.020 0.278-0.099 0.099-0.099 0.139-0.198 0.198-0.238 0.099-0.297 0.238-0.476 0.278-0.773 0.099-0.317 0.198-0.615 0.059-0.892-0.059-0.139-0.059-0.297-0.059-0.436 0.059-0.377-0.297-0.714-0.436-1.051-0.099-0.178-0.178-0.377-0.278-0.555-0.139-0.297-0.555-0.416-0.971-0.416-0.377 0-0.733 0.079-0.951 0.218-0.258 0.198-0.159 0.337-0.555 0.159zM37.192 2.367c0 0.198 0.040 0.337 0.020 0.476 0.020 0.515-0.020 0.852 0 1.328-0.020 0.952-0.159 1.685-0.159 2.636 0 0.753-0.059 1.566-0.059 2.379 0 0.951 0.020 1.903 0.218 2.854 0.079 0.238 0.079 0.476 0.198 0.674 0.040 0.238 0.159 0.476 0.258 0.714s0.139 0.476 0.377 0.654c0.218 0.139 0.218 0.416 0.396 0.595 0.059 0 0.119 0.040 0.178 0.040 0.218-0.099 0.456 0.020 0.634-0.159 0.178-0.119 0.119-0.535 0.119-0.773-0.020-0.377-0.099-0.793-0.218-1.189-0.040-0.119-0.079-0.297-0.119-0.496 0.040-0.991-0.020-2.002-0.059-2.993-0.020-0.575-0.059-1.15-0.059-1.764 0-0.377 0.040-0.753-0.040-1.13-0.079-0.634-0.139-1.090-0.198-1.764-0.040-0.575-0.139-0.932-0.297-1.447-0.079-0.238-0.079-0.416-0.020-0.654 0.079-0.079 0.159-0.119 0.258-0.119 0.575 0 0.813-0.139 1.427-0.099 0.396 0.040 1.090-0.198 1.526-0.634 0.040-0.059 0.178-0.119 0.278-0.159 0.040 0 0.119-0.139 0.139-0.159 0.059-0.059 0.079-0.159 0.059-0.238-0.040-0.198-0.159-0.357-0.456-0.297-0.317 0.099-0.852 0.555-1.13 0.436-0.139-0.059-0.852 0-0.991 0-0.555 0.040-1.031 0-1.546 0-0.555 0-1.15 0.020-1.903 0.258-0.714 0.218-1.189 0.416-1.784 0.615-0.159 0.059-0.159 0.377-0.159 0.575 0 0.575 0.515 0.436 0.971 0.436 0.139 0 0.238-0.079 0.337-0.119 0.456-0.317 1.189-0.436 1.804-0.476zM38.56 10.079c0.079 0.079 0.040 0.793 0.079 1.090 0.040 0.317 0.040 0.535 0.040 0.535-0.357-0.357-0.119-1.626-0.119-1.626zM42.644 3.755c-0.515 0.852-0.396 0.793-0.773 1.685-0.178 0.416-0.258 0.932-0.357 1.705-0.040 0.377-0.059 0.793-0.059 1.189 0 0.436 0.040 0.872 0.119 1.249 0.040 0.278 0.159 0.535 0.218 0.833 0.059 0.357 0.416 0.793 0.555 1.090 0.218 0.396 0.496 0.793 0.813 0.991 0.099 0.059 0.198 0.159 0.297 0.238 0.614 0.595 1.388 0.892 2.28 1.031 0.674 0.099 1.328-0.258 1.923-0.575 0.139-0.059 0.238-0.159 0.357-0.258 0.099-0.099 0.198-0.337 0.396-0.337 0.040 0 0.079-0.059 0.139-0.099 0.119-0.099 0.198-0.317 0.337-0.456 0.040-0.040 0.515-0.892 0.555-1.031 0.258-0.654 0.278-0.535 0.436-1.229 0.159-0.634 0.238-1.348 0.317-1.982 0.020-0.079 0.020-0.198 0.020-0.317 0.020-0.575-0.079-1.051-0.159-1.447-0.258-1.17-0.515-1.17-0.952-2.062-0.238-0.476-0.733-0.872-1.229-1.15-0.476-0.258-1.011-0.932-1.645-1.070-0.337-0.079-0.733-0.119-1.15-0.119-0.337 0-0.694 0.059-1.031 0.159-0.238 0.079-0.496 0.198-0.694 0.317-0.278 0.159-0.714 0.575-0.714 0.951 0 0.178-0.040 0.575 0 0.694zM44.19 5.063c-0.020-0.099 0.079-0.337 0.079-0.416 0.059-0.159 0.040-0.515 0.119-0.674 0-0.059 0.040-0.099 0.040-0.198 0.040-0.099-0.040-0.337-0.099-0.456 0.139-0.139 0.278-0.159 0.416-0.337 0.059-0.079 0.753-0.337 1.070-0.337 0.773 0 1.507 0.555 1.923 1.328 0.059 0.099 0.139 0.258 0.218 0.396 0.238 0.496 0.278 0.971 0.238 1.526-0.040 0.634-0.059 1.051-0.079 1.645-0.020 0.912-0.099 1.665-0.278 2.458-0.099 0.377-0.337 0.813-0.535 1.13-0.139 0.218-0.337 0.614-0.535 0.833l-0.198 0.178c-0.555 0.198-0.852 0.496-1.407 0.515-0.892 0.020-1.051-0.317-1.546-1.011-0.079-0.139-0.337-0.872-0.396-1.090-0.099-0.416-0.020-0.714-0.040-1.13-0.020-0.396-0.040-0.852 0.059-1.15l0.952-3.211zM11.392 30.757c0.258-0.496 0.040-0.634 0.040-0.852 0-0.357-0.099-0.476-0.238-0.714-0.159-0.159-0.159-0.357-0.159-0.496 0.059-0.595 0.099-1.903 0.159-2.498 0.040-0.595 0.139-1.189 0.198-1.824 0.040-0.456 0.139-0.892 0.297-1.348 0.040-0.139 0-0.297 0.040-0.496 0-0.139 0.059-0.297 0.059-0.496 0-0.337 0.040-0.733-0.059-1.13-0.099-0.496 0.079-1.189-0.198-1.645-0.178-0.297-0.357-0.575-0.595-0.833-0.555-0.575-1.070-0.892-1.844-1.070-0.297-0.059-1.031-0.099-1.328-0.020-0.198 0.059-0.396 0.079-0.634 0.159-0.198 0.059-0.654 0.178-0.753 0.377-0.099 0.297-0.555 0.436-0.595 0.793-0.020 0.178 0.456 0.297 0.496 0.396-0.040 0.198-0.178 0.396-0.198 0.595-0.059 0.496-0.139 0.932-0.139 1.546 0 0.436-0.059 0.892-0.059 1.288 0 0.535-0.040 1.090-0.040 1.625 0 0.951-0.258 2.28-0.099 3.271 0.099 0.654 0.198 1.288 0.396 1.883 0.099 0.297 0.278 0.674 0.595 0.694 0.198 0.020 0.396-0.079 0.496-0.238 0.099-0.178 0-0.396 0-0.595 0-0.555-0.159-1.15 0-1.685v-0.198c-0.059-0.654 0.099-1.764 0.099-2.418v-2.795c0-0.436-0.059-0.892-0.059-1.328 0-0.198-0.040-0.396 0.059-0.595 0.040-0.258 0.099-0.555 0.139-0.793 0-0.198-0.040-0.258-0.297-0.198-0.040 0-0.139 0-0.099-0.159 0.059 0 0.099 0 0.159-0.040 0.297-0.258 0.694-0.297 1.031-0.357 0.357-0.079 1.090-0.059 1.427 0.099 0.396 0.198 0.416 0.258 0.575 0.515 0.198 0.297-0.099 0.654-0.099 1.011 0 0.099-0.059 0.515-0.020 0.654v0.357c-0.040 0.436-0.099 0.833-0.198 1.229-0.377 1.645-0.496 3.231-0.634 4.916-0.059 0.793-0.099 1.586 0 2.418 0.040 0.357 0.198 0.694 0.238 1.090 0 0.198 0.159 0.297 0.297 0.396 0.159 0.059 0.297 0.099 0.456 0.198 0.396 0.198 0.297 0.059 0.634-0.099 0.198-0.139 0.337-0.377 0.456-0.595zM19.678 29.885c0.040-0.099 0.139-0.198 0.139-0.297 0.020-0.297-0.337-0.218-0.337-0.694 0-0.377 0.178-1.725 0.218-2.062 0.040-0.535 0.218-1.923 0.218-2.399 0-1.090 0.119-1.467 0-2.577-0.139-1.269-0.852-2.458-0.951-3.271-0.040-0.575-0.258-0.951-0.535-1.487-0.198-0.317-0.357-0.535-0.694-0.654-0.416-0.159-0.833-0.099-1.209 0-0.139 0.020-0.238 0.099-0.377 0.178-0.575 0.436-0.892 1.051-1.031 1.764-0.139 0.614-0.515 1.288-0.575 1.903-0.079 1.011-0.357 2.002-0.515 2.954-0.119 0.614-0.198 1.288-0.198 1.903 0 0.139 0 0.278-0.040 0.436-0.198 0.951 0.020 1.507-0.178 2.458 0 0.079-0.040 0.238-0.040 0.317-0.198 0.714 0.059 0.991-0.099 1.645-0.059 0.198-0.079 0.337-0.059 0.515-0.020 0.159 0.020 0.238 0.159 0.357 0.040 0 0.079 0.119 0.159 0.159 0.139 0.119 0.178 0.238 0.337 0.159 0.099 0 0.198-0.020 0.278-0.020 0.119-0.079 0.178-0.198 0.238-0.258 0.218-0.218 0.337-0.496 0.218-0.733-0.040-0.099-0.020-0.258 0-0.337 0.059-0.456-0.079-0.337 0.079-0.813 0.396-1.249 0.496-2.498 0.654-3.846 0.059-0.139 0.099-0.278 0.159-0.476 0.614 0 1.388-0.040 1.943-0.040 0.099 0 0.198 0 0.297 0.040 0.040 0 0.099 0 0.139 0.059 0 0.040 0.040 0.099 0 0.139-0.040 0.674-0.079 1.467-0.079 2.319 0 0.535 0.317 1.526 0.555 2.101 0.099 0.218 0.278 0.456 0.456 0.595 0.139 0.139 0.337 0 0.476 0 0.059 0 0.099-0.040 0.198-0.040zM18.192 24.096c-0.614-0.278-1.705-0.139-2.359-0.178-0.059-0.059 0.139-0.951 0.139-1.011 0-0.377 0.040-0.753 0.099-1.13 0-0.059 0.040-0.159 0-0.238-0.099-0.773 0.020-1.526 0.119-2.339 0.059-0.377 0.099-0.813 0.198-1.189 0.040-0.337 0.337-0.575 0.654-0.575 0.159 0 0.238 0.059 0.337 0.198 0.059 0.139 0.139 0.278 0.198 0.476 0.040 0.416 0.139 0.654 0.178 1.090 0.059 0.674 0.198 1.526 0.258 2.181 0 0.099 0 0.159 0.040 0.238 0.040 0.198 0.099 0.337 0.099 0.535 0.040 0.476 0.139 1.427 0.040 1.943zM26.141 18.090c-0.476-0.178-1.526 0.476-1.883 0.872-0.416 0.436-0.674 0.496-1.090 0.971-0.159 0.139-0.297 0.337-0.337 0.476-0.198 0.416-0.654 1.15-0.733 1.566-0.099 0.535-0.317 1.051-0.456 1.586-0.099 0.377-0.178 1.328-0.159 1.705 0.099 1.348 0.297 2.141 0.912 3.231 0.436 0.773 0.912 1.328 1.725 1.685 0.159 0.079 0.614 0.357 0.852 0.515 0.337 0.178 0.733 0.119 1.070 0.238 0.377 0.119 0.773 0.020 1.11-0.099 0.377-0.119 0.773-0.178 1.090-0.297 0.436-0.178 0.615-0.258 0.952-0.416 0.119-0.040 0.396-0.258 0.476-0.337 0.040-0.139 0.139-0.099 0.178-0.297 0.099-0.218-0.079-0.178-0.159-0.258s-0.416 0.020-0.416 0.020c-0.753 0.357-0.793 0.416-1.269 0.575-0.694 0.238-2.121-0.040-2.696-0.515-0.337-0.278-0.416-0.614-0.614-1.051-0.040-0.139-0.139-0.278-0.178-0.416-0.575-0.912-0.535-2.399-0.476-3.449 0.040-0.714 0.139-1.368 0.436-2.042 0.079-0.238 0.178-0.416 0.317-0.654 0.059-0.099 0.099-0.198 0.099-0.337 0.059-0.535 1.011-1.764 1.487-2.062 0.079-0.099 0.238-0.099 0.317-0.198 0.099-0.040 0.634-0.297 0.714-0.396 1.031-0.020 0.912 0.694 0.813 0.971-0.258 0.733-0.377 0.872-0.377 1.388 0 0.476 0.258 0.733 0.436 0.912 0.099 0.099 0.198 0.198 0.297 0.198 0.139 0 0.218-0.020 0.278-0.099 0.099-0.099 0.139-0.198 0.198-0.238 0.099-0.297 0.238-0.476 0.278-0.773 0.099-0.317 0.198-0.614 0.059-0.892-0.059-0.139-0.059-0.297-0.059-0.436 0.059-0.377-0.297-0.714-0.436-1.051-0.099-0.178-0.178-0.377-0.278-0.555-0.139-0.297-0.555-0.416-0.971-0.416-0.377 0-0.733 0.079-0.951 0.218-0.258 0.198-0.159 0.337-0.555 0.159zM33.001 19.359c0 0.198 0.040 0.337 0.020 0.476 0.020 0.515-0.020 0.852 0 1.328-0.020 0.951-0.159 1.685-0.159 2.636 0 0.753-0.059 1.566-0.059 2.379 0 0.951 0.020 1.903 0.218 2.854 0.079 0.238 0.079 0.476 0.198 0.674 0.040 0.238 0.159 0.476 0.258 0.714s0.139 0.476 0.377 0.654c0.218 0.139 0.218 0.416 0.396 0.595 0.059 0 0.119 0.040 0.178 0.040 0.218-0.099 0.456 0.020 0.634-0.159 0.178-0.119 0.119-0.535 0.119-0.773-0.020-0.377-0.099-0.793-0.218-1.189-0.040-0.119-0.079-0.297-0.119-0.496 0.040-0.991-0.020-2.002-0.059-2.993-0.020-0.575-0.059-1.15-0.059-1.764 0-0.377 0.040-0.753-0.040-1.13-0.079-0.634-0.139-1.090-0.198-1.764-0.040-0.575-0.139-0.932-0.297-1.447-0.079-0.238-0.079-0.416-0.020-0.654 0.079-0.079 0.159-0.119 0.258-0.119 0.575 0 0.813-0.139 1.427-0.099 0.396 0.040 1.090-0.198 1.526-0.634 0.040-0.059 0.178-0.119 0.278-0.159 0.040 0 0.119-0.139 0.139-0.159 0.059-0.059 0.079-0.159 0.059-0.238-0.040-0.198-0.159-0.357-0.456-0.297-0.317 0.099-0.852 0.555-1.13 0.436-0.139-0.059-0.852 0-0.991 0-0.555 0.040-1.031 0-1.546 0-0.555 0-1.15 0.020-1.903 0.258-0.714 0.218-1.189 0.416-1.784 0.614-0.159 0.059-0.159 0.377-0.159 0.575 0 0.575 0.515 0.436 0.971 0.436 0.139 0 0.238-0.079 0.337-0.119 0.456-0.317 1.189-0.436 1.804-0.476zM34.369 27.070c0.079 0.079 0.040 0.793 0.079 1.090 0.040 0.317 0.040 0.535 0.040 0.535-0.357-0.357-0.119-1.625-0.119-1.625zM44.070 29.885c0.040-0.099 0.139-0.198 0.139-0.297 0.020-0.297-0.337-0.218-0.337-0.694 0-0.377 0.178-1.725 0.218-2.062 0.040-0.535 0.218-1.923 0.218-2.399 0-1.090 0.119-1.467 0-2.577-0.139-1.269-0.852-2.458-0.952-3.271-0.040-0.575-0.258-0.951-0.535-1.487-0.198-0.317-0.357-0.535-0.694-0.654-0.416-0.159-0.833-0.099-1.209 0-0.139 0.020-0.238 0.099-0.377 0.178-0.575 0.436-0.892 1.051-1.031 1.764-0.139 0.614-0.515 1.288-0.575 1.903-0.079 1.011-0.357 2.002-0.515 2.954-0.119 0.614-0.198 1.288-0.198 1.903 0 0.139 0 0.278-0.040 0.436-0.198 0.951 0.020 1.507-0.178 2.458 0 0.079-0.040 0.238-0.040 0.317-0.198 0.714 0.059 0.991-0.099 1.645-0.059 0.198-0.079 0.337-0.059 0.515-0.020 0.159 0.020 0.238 0.159 0.357 0.040 0 0.079 0.119 0.159 0.159 0.139 0.119 0.178 0.238 0.337 0.159 0.099 0 0.198-0.020 0.278-0.020 0.119-0.079 0.178-0.198 0.238-0.258 0.218-0.218 0.337-0.496 0.218-0.733-0.040-0.099-0.020-0.258 0-0.337 0.059-0.456-0.079-0.337 0.079-0.813 0.396-1.249 0.496-2.498 0.654-3.846 0.059-0.139 0.099-0.278 0.159-0.476 0.614 0 1.388-0.040 1.943-0.040 0.099 0 0.198 0 0.297 0.040 0.040 0 0.099 0 0.139 0.059 0 0.040 0.040 0.099 0 0.139-0.040 0.674-0.079 1.467-0.079 2.319 0 0.535 0.317 1.526 0.555 2.101 0.099 0.218 0.278 0.456 0.456 0.595 0.139 0.139 0.337 0 0.476 0 0.059 0 0.099-0.040 0.198-0.040zM42.583 24.096c-0.614-0.278-1.705-0.139-2.359-0.178-0.059-0.059 0.139-0.951 0.139-1.011 0-0.377 0.040-0.753 0.099-1.13 0-0.059 0.040-0.159 0-0.238-0.099-0.773 0.020-1.526 0.119-2.339 0.059-0.377 0.099-0.813 0.198-1.189 0.040-0.337 0.337-0.575 0.654-0.575 0.159 0 0.238 0.059 0.337 0.198 0.059 0.139 0.139 0.278 0.198 0.476 0.040 0.416 0.139 0.654 0.178 1.090 0.059 0.674 0.198 1.526 0.258 2.181 0 0.099 0 0.159 0.040 0.238 0.040 0.198 0.099 0.337 0.099 0.535 0.040 0.476 0.139 1.427 0.040 1.943z"></path>
</symbol>
<symbol id="icon-ukrainian-heart" viewBox="0 0 34 32">
<path fill="#1c92ff" style="fill: var(--color1, #1c92ff)" d="M30.648 3.042c-3.802-3.924-9.9-4.046-13.846-0.395-3.958-3.656-10.045-3.525-13.85 0.395-3.414 3.52-3.867 8.937-1.356 12.958h30.408c2.511-4.020 2.060-9.429-1.356-12.958z"></path>
<path fill="#f1ce1a" style="fill: var(--color2, #f1ce1a)" d="M32.008 16h-30.408c0.282 0.452 0.602 0.887 0.96 1.299l14.243 14.701 14.246-14.701c0.357-0.412 0.677-0.847 0.96-1.299z"></path>
</symbol>
</defs>
</svg>
